<svg width="41" height="40" viewBox="0 0 41 40" fill="none" xmlns="http://www.w3.org/2000/svg">
<path d="M32.5916 8.21582L32.6087 8.23532C34.2178 10.0798 35 12.5096 35 14.9592C35 17.4147 34.2138 19.8923 32.5949 21.7805L20.9133 34.3212C20.7785 34.4445 20.6177 34.5 20.5181 34.5C20.3917 34.5 20.2629 34.451 20.1233 34.3217L8.43947 21.7785C5.18525 18.0643 5.18684 11.9687 8.44427 8.25664C10.0652 6.40966 12.1772 5.5 14.2754 5.5C15.2648 5.5 16.2836 5.90422 17.2878 6.56158C18.287 7.21569 19.2353 8.09654 20.0765 8.9947C20.0841 9.00331 20.0975 9.01829 20.111 9.03201C20.128 9.04939 20.1709 9.09196 20.2355 9.12867C20.3111 9.1716 20.3838 9.18865 20.4403 9.19509C20.4643 9.19782 20.4841 9.19848 20.4948 9.19873C20.5051 9.19896 20.5152 9.19894 20.518 9.19894C20.7056 9.19894 20.8345 9.10342 20.8692 9.07714C20.8964 9.05648 20.9178 9.03688 20.9325 9.02259C20.9401 9.01516 20.9467 9.00842 20.952 9.00272L20.9594 8.99476L20.9621 8.99172C20.9622 8.9916 20.9623 8.99147 20.9624 8.99135L20.9625 8.99129L20.9625 8.99125C22.7697 6.97101 25.1713 5.86578 27.4741 5.86578C29.3347 5.86578 31.1573 6.58129 32.5916 8.21582Z" stroke="#FCEEE3"/>
</svg>
