<svg width="21" height="20" viewBox="0 0 21 20" fill="none" xmlns="http://www.w3.org/2000/svg">
<path d="M11.0006 4.41772C9.07037 4.41772 7.4975 5.94431 7.4975 7.83545C7.4975 9.72658 9.07037 11.2532 11.0006 11.2532C12.9309 11.2532 14.5037 9.72658 14.5037 7.83545C14.5037 5.94431 12.9309 4.41772 11.0006 4.41772ZM11.0006 10.1139C9.73758 10.1139 8.68903 9.08865 8.68903 7.83545C8.68903 6.58224 9.71367 5.55696 11.0006 5.55696C12.2874 5.55696 13.3122 6.58224 13.3122 7.83545C13.3122 9.08865 12.2636 10.1139 11.0006 10.1139Z" fill="#D8AD83"/>
<path d="M11.0006 1C7.06862 1 3.7799 4.00768 3.51776 7.85823C3.44628 8.83789 3.58924 9.81772 3.97059 10.7747C4.32798 11.686 4.89998 12.5746 5.66265 13.3494L10.5479 18.795C10.6671 18.9317 10.8339 19 11.0008 19C11.1677 19 11.3344 18.9317 11.4536 18.795L16.3389 13.3494C17.1015 12.5519 17.6734 11.6862 18.0309 10.7747C18.3883 9.81772 18.5552 8.83789 18.4838 7.85823C18.2213 4.00755 14.9326 1 11.0005 1H11.0006ZM16.9344 10.3873C16.6485 11.162 16.148 11.9139 15.4808 12.5975C15.4808 12.5975 15.4808 12.6202 15.457 12.6202L11.0007 17.5645L6.54432 12.5974C6.54432 12.5974 6.54432 12.5747 6.52055 12.5747C5.85329 11.8911 5.3528 11.1621 5.06687 10.3646C4.75702 9.56701 4.63801 8.74675 4.68555 7.9265C4.87621 5.0784 7.30701 2.11637 10.9768 2.11637C14.6467 2.11637 17.1013 5.07844 17.292 7.94928C17.3635 8.76954 17.2443 9.58979 16.9346 10.3872L16.9344 10.3873Z" fill="#D8AD83"/>
</svg>
