<svg width="26" height="26" viewBox="0 0 26 26" fill="none" xmlns="http://www.w3.org/2000/svg">
<path d="M8.18817 5.92369C8.31211 6.07959 8.49835 6.14199 8.65322 6.14199C8.80832 6.14199 8.96341 6.07959 9.05642 5.9861C9.33545 5.7678 9.33545 5.36275 9.11849 5.08228L7.44409 3.1498C7.22691 2.86932 6.82395 2.86932 6.54492 3.0874C6.26588 3.3057 6.26588 3.71074 6.48284 3.99122L8.18817 5.92369Z" fill="#F9FD50"/>
<path d="M23.4763 13.6226C23.4142 13.4043 23.1973 13.2173 22.9492 13.1862L16.8093 12.2824L14.0804 6.70301C13.8632 6.26664 13.15 6.26664 12.9331 6.70301L10.2042 12.2824L4.06424 13.1862C3.81614 13.2173 3.63012 13.4045 3.53711 13.6226C3.4441 13.8409 3.53711 14.1214 3.6922 14.2773L8.12647 18.6099L7.0722 24.7504C7.04127 24.9998 7.13428 25.2178 7.3203 25.3737C7.50633 25.5296 7.78536 25.5296 8.00251 25.4361L13.5222 22.5372L19.011 25.4359C19.104 25.4983 19.197 25.4983 19.3212 25.4983C19.4451 25.4983 19.5693 25.4672 19.6932 25.3737C19.8793 25.2178 19.9723 24.9997 19.9413 24.7504L18.8871 18.6099L23.3213 14.2773C23.4762 14.1214 23.5383 13.872 23.4762 13.6226L23.4763 13.6226Z" fill="#F9FD50"/>
<path d="M13.3049 4.33406C13.646 4.33406 13.9562 4.05358 13.925 3.67938V1.12334C13.925 0.780462 13.646 0.5 13.3049 0.5C12.9638 0.5 12.6848 0.780479 12.6848 1.15468V3.71072C12.6538 4.05338 12.9638 4.33406 13.3049 4.33406Z" fill="#F9FD50"/>
<path d="M18.1741 6.1732C18.3601 6.1732 18.5462 6.0797 18.6703 5.92381L20.1898 3.89788C20.407 3.6174 20.3449 3.21214 20.0659 2.99406C19.7869 2.77577 19.3837 2.83817 19.1667 3.11865L17.6472 5.14458C17.43 5.42506 17.4921 5.83032 17.7711 6.04839C17.8949 6.14189 18.05 6.1732 18.1741 6.1732H18.1741Z" fill="#F9FD50"/>
</svg>
